# xmcd
#
# Track frame offsets: 
#        150
#        15466
#        26475
#        38708
#        49995
#        61198
#        73224
#        85620
#        98639
#        111454
#        123736
#        138584
#        148226
#        158226
#        169392
#        179023
#        190734
#        204268
#        214988
#        226160
#        237271
#        247417
#
# Disc length: 3612 seconds
#
# Revision: 0
# Processed by: cddbd v1.4PL0 Copyright (c) Steve Scherf et al.
# Submitted via: ExactAudioCopy v0.90b4
#
DISCID=490e1a16
DTITLE=The Valentinos - "Do It Right"
DYEAR=1900
DGENRE=R&B
TTITLE0=Darling, Darling, Darling
TTITLE1=Everybody wants to fall in love
TTITLE2=Baby, lots of luck
TTITLE3=Lookin' for a love
TTITLE4=I've got love for you
TTITLE5=I've got a girl
TTITLE6=Tired of living in the country
TTITLE7=It's all over now
TTITLE8=I found a true love
TTITLE9=What about me
TTITLE10=Do it right
TTITLE11=I'm gonna forget about you
TTITLE12=Let's get together
TTITLE13=I've come a long way
TTITLE14=See me through
TTITLE15=Sweeter than the day before
TTITLE16=Baby Girl
TTITLE17=A lonesome man
TTITLE18=Couldn't hear nobody pray
TTITLE19=Yield not to temptation
TTITLE20=Somewhere there's a God
TTITLE21=I can understand it
EXTD=
EXTT0=
EXTT1=
EXTT2=
EXTT3=
EXTT4=
EXTT5=
EXTT6=
EXTT7=
EXTT8=
EXTT9=
EXTT10=
EXTT11=
EXTT12=
EXTT13=
EXTT14=
EXTT15=
EXTT16=
EXTT17=
EXTT18=
EXTT19=
EXTT20=
EXTT21=
PLAYORDER=
